<svg  viewBox="0 0 231 234" fill="none" xmlns="http://www.w3.org/2000/svg">
<path d="M43.1865 143.72L37.5127 140.58C21.7547 131.858 11 114.858 11 95.2324C11.0001 66.5956 33.8431 43.6514 61.6904 43.6514C62.4374 43.6514 63.1812 43.6677 63.9209 43.7002L71.2617 44.0225L74.3701 37.3643C81.6847 21.6982 97.3307 11.0001 115.334 11C133.338 11 148.984 21.6985 156.298 37.3643L159.406 44.0225L166.747 43.7002C167.487 43.6677 168.231 43.6514 168.979 43.6514C196.825 43.6516 219.669 66.5958 219.669 95.2324C219.669 114.858 208.913 131.858 193.155 140.58L187.482 143.72V182.868C187.482 192.292 187.465 199.314 186.852 204.761L186.721 205.829V205.83C185.996 211.301 184.624 214.728 182.241 217.268L182.008 217.51L182.006 217.512C179.657 219.895 176.56 221.3 171.656 222.083L170.651 222.231H170.65C165.177 222.978 157.999 223 148.078 223H82.5898C73.2891 223 66.399 222.981 61.0645 222.363L60.0186 222.231H60.0176C54.6971 221.506 51.38 220.142 48.8994 217.746L48.6621 217.511H48.6611C46.2921 215.108 44.8806 211.908 44.0967 206.863L43.9482 205.83C43.2073 200.239 43.1862 192.919 43.1865 182.868V143.72Z" stroke="currentColor" stroke-width="22"/>
</svg>
