<svg width="560" height="217" viewBox="0 0 560 217" fill="none" xmlns="http://www.w3.org/2000/svg">
<path d="M560.001 26.3829H26.7682V216.108H560.001V26.3829Z" fill="#1E1E1E"/>
<path d="M536.741 4.3829H3.50818V194.108H536.741V4.3829Z" fill="white" stroke="black" stroke-width="7.0032"/>
<path d="M27 132.8V50H60.47C61.2767 50 62.2733 50.03 63.46 50.09C64.6467 50.1433 65.7767 50.2667 66.85 50.46C71.45 51.1867 75.2933 52.76 78.38 55.18C81.4667 57.5933 83.7767 60.64 85.31 64.32C86.8433 68 87.61 72.0633 87.61 76.51C87.61 83.1033 85.9233 88.7867 82.55 93.56C79.1767 98.3333 74.1167 101.313 67.37 102.5L62.48 103.07H39.02V132.8H27ZM75.42 132.8L59.09 99.11L71.22 96L89.16 132.8H75.42ZM39.02 91.69H60.01C60.7767 91.69 61.63 91.65 62.57 91.57C63.51 91.4967 64.4 91.3633 65.24 91.17C67.6933 90.5967 69.6667 89.5333 71.16 87.98C72.66 86.4267 73.7333 84.6333 74.38 82.6C75.0333 80.5733 75.36 78.5433 75.36 76.51C75.36 74.4767 75.0333 72.4533 74.38 70.44C73.7333 68.4267 72.66 66.6433 71.16 65.09C69.6667 63.5433 67.6933 62.48 65.24 61.9C64.4 61.6733 63.51 61.52 62.57 61.44C61.63 61.3667 60.7767 61.33 60.01 61.33H39.02V91.69Z" fill="#1E1E1E"/>
<path d="M129.35 134.53C123.183 134.53 117.77 133.177 113.11 130.47C108.45 127.77 104.827 123.993 102.24 119.14C99.6533 114.293 98.36 108.67 98.36 102.27C98.36 95.4833 99.6366 89.6 102.19 84.62C104.737 79.6333 108.29 75.78 112.85 73.06C117.41 70.34 122.72 68.98 128.78 68.98C135.107 68.98 140.493 70.4433 144.94 73.37C149.387 76.3033 152.71 80.4733 154.91 85.88C157.117 91.2867 157.99 97.7067 157.53 105.14H145.51V100.77C145.437 93.5633 144.067 88.2367 141.4 84.79C138.733 81.3367 134.68 79.61 129.24 79.61C123.22 79.61 118.697 81.51 115.67 85.31C112.643 89.1033 111.13 94.5833 111.13 101.75C111.13 108.577 112.643 113.857 115.67 117.59C118.697 121.33 123.067 123.2 128.78 123.2C132.533 123.2 135.783 122.347 138.53 120.64C141.27 118.933 143.407 116.49 144.94 113.31L156.72 117.05C154.307 122.603 150.647 126.903 145.74 129.95C140.833 133.003 135.37 134.53 129.35 134.53ZM107.22 105.14V95.77H151.55V105.14H107.22Z" fill="#1E1E1E"/>
<path d="M164.66 132.8V130.9L199.91 81.45H167.88V70.7H219V72.66L183.81 122.05H217.27V132.8H164.66Z" fill="#1E1E1E"/>
<path d="M254.59 134.53C248.417 134.53 243.003 133.177 238.35 130.47C233.69 127.77 230.067 123.993 227.48 119.14C224.893 114.293 223.6 108.67 223.6 102.27C223.6 95.4833 224.873 89.6 227.42 84.62C229.967 79.6333 233.523 75.78 238.09 73.06C242.65 70.34 247.957 68.98 254.01 68.98C260.337 68.98 265.723 70.4433 270.17 73.37C274.617 76.3033 277.943 80.4733 280.15 85.88C282.35 91.2867 283.22 97.7067 282.76 105.14H270.75V100.77C270.67 93.5633 269.3 88.2367 266.64 84.79C263.973 81.3367 259.917 79.61 254.47 79.61C248.457 79.61 243.933 81.51 240.9 85.31C237.873 89.1033 236.36 94.5833 236.36 101.75C236.36 108.577 237.873 113.857 240.9 117.59C243.933 121.33 248.303 123.2 254.01 123.2C257.77 123.2 261.02 122.347 263.76 120.64C266.5 118.933 268.637 116.49 270.17 113.31L281.96 117.05C279.547 122.603 275.887 126.903 270.98 129.95C266.073 133.003 260.61 134.53 254.59 134.53ZM232.45 105.14V95.77H276.78V105.14H232.45Z" fill="#1E1E1E"/>
<path d="M323.07 134.53C317.13 134.53 312.147 133.08 308.12 130.18C304.093 127.287 301.047 123.37 298.98 118.43C296.907 113.483 295.87 107.903 295.87 101.69C295.87 95.4833 296.897 89.9067 298.95 84.96C301.003 80.0133 304.033 76.1133 308.04 73.26C312.04 70.4067 316.973 68.98 322.84 68.98C328.667 68.98 333.7 70.4067 337.94 73.26C342.173 76.1133 345.44 80.0033 347.74 84.93C350.04 89.8567 351.19 95.4433 351.19 101.69C351.19 107.903 350.05 113.49 347.77 118.45C345.49 123.417 342.25 127.337 338.05 130.21C333.85 133.09 328.857 134.53 323.07 134.53ZM293.86 160.4V70.7H304.56V115.38H305.94V160.4H293.86ZM321.4 123.66C325.233 123.66 328.407 122.683 330.92 120.73C333.433 118.77 335.313 116.133 336.56 112.82C337.8 109.507 338.42 105.797 338.42 101.69C338.42 97.63 337.8 93.95 336.56 90.65C335.313 87.3567 333.403 84.7333 330.83 82.78C328.263 80.82 324.987 79.84 321 79.84C317.247 79.84 314.153 80.76 311.72 82.6C309.28 84.44 307.477 87.01 306.31 90.31C305.143 93.6033 304.56 97.3967 304.56 101.69C304.56 105.983 305.133 109.78 306.28 113.08C307.433 116.373 309.253 118.96 311.74 120.84C314.233 122.72 317.453 123.66 321.4 123.66Z" fill="#1E1E1E"/>
<path d="M399.37 132.8C395.463 133.567 391.63 133.893 387.87 133.78C384.117 133.667 380.763 132.937 377.81 131.59C374.857 130.25 372.633 128.143 371.14 125.27C369.8 122.703 369.083 120.087 368.99 117.42C368.89 114.753 368.84 111.733 368.84 108.36V53.45H380.92V107.79C380.92 110.283 380.947 112.45 381 114.29C381.06 116.13 381.453 117.68 382.18 118.94C383.56 121.32 385.757 122.673 388.77 123C391.777 123.327 395.31 123.2 399.37 122.62V132.8ZM356.94 80.36V70.7H399.37V80.36H356.94Z" fill="#1E1E1E"/>
<path d="M436.52 134.53C430.307 134.53 424.92 133.13 420.36 130.33C415.8 127.53 412.283 123.667 409.81 118.74C407.337 113.813 406.1 108.13 406.1 101.69C406.1 95.2167 407.367 89.5167 409.9 84.59C412.427 79.6633 415.97 75.83 420.53 73.09C425.097 70.35 430.427 68.98 436.52 68.98C442.727 68.98 448.113 70.3767 452.68 73.17C457.24 75.97 460.767 79.8233 463.26 84.73C465.747 89.6367 466.99 95.29 466.99 101.69C466.99 108.17 465.737 113.873 463.23 118.8C460.717 123.727 457.18 127.58 452.62 130.36C448.06 133.14 442.693 134.53 436.52 134.53ZM436.52 123.2C442.46 123.2 446.897 121.197 449.83 117.19C452.763 113.183 454.23 108.017 454.23 101.69C454.23 95.2167 452.743 90.0333 449.77 86.14C446.803 82.2467 442.387 80.3 436.52 80.3C432.493 80.3 429.177 81.21 426.57 83.03C423.963 84.8567 422.027 87.37 420.76 90.57C419.5 93.77 418.87 97.4767 418.87 101.69C418.87 108.21 420.363 113.423 423.35 117.33C426.343 121.243 430.733 123.2 436.52 123.2Z" fill="#1E1E1E"/>
<path d="M479.64 132.8V70.7H490.34V85.77L488.84 83.81C489.607 81.8167 490.603 79.9867 491.83 78.32C493.057 76.6533 494.477 75.2833 496.09 74.21C497.663 73.0567 499.417 72.1633 501.35 71.53C503.283 70.9033 505.267 70.52 507.3 70.38C509.333 70.2467 511.29 70.3533 513.17 70.7V81.97C511.137 81.4367 508.883 81.2833 506.41 81.51C503.937 81.7433 501.667 82.53 499.6 83.87C497.64 85.1367 496.097 86.67 494.97 88.47C493.837 90.27 493.02 92.2733 492.52 94.48C492.027 96.68 491.78 99.0067 491.78 101.46V132.8H479.64Z" fill="#1E1E1E"/>
</svg>
