<svg  viewBox="0 0 350 239" fill="none" xmlns="http://www.w3.org/2000/svg">
<path d="M38.0117 150.188L35.1973 148.614C17.5487 138.737 5.50005 119.484 5.5 97.2676C5.5 64.8713 31.0672 38.8489 62.3135 38.8486C63.1496 38.8486 63.9827 38.8675 64.8105 38.9043L68.499 39.0684L70.0479 35.7158C78.3242 17.7923 96.0537 5.5 116.5 5.5C136.947 5.5 154.677 17.7916 162.952 35.7148L164.5 39.0684L168.189 38.9043C169.018 38.8675 169.85 38.8486 170.687 38.8486C201.932 38.8489 227.5 64.8714 227.5 97.2676C227.5 119.484 215.451 138.737 197.803 148.614L194.988 150.188V186.775C194.988 196.266 194.98 203.816 194.312 209.811L194.169 210.989C193.357 217.186 191.697 222.031 188.169 225.841L187.821 226.206L187.466 226.562C184.011 229.929 179.702 231.615 174.267 232.493L173.126 232.663C167.139 233.489 159.455 233.5 149.575 233.5H83.4248C74.1629 233.5 66.83 233.49 61.0166 232.809L59.874 232.663C53.8965 231.839 49.2271 230.161 45.5332 226.562L45.1787 226.207V226.206L44.8311 225.841C41.5308 222.277 39.8652 217.807 38.999 212.172L38.8311 210.989C38.1228 205.586 38.0265 198.85 38.0137 190.47L38.0117 186.776V150.188Z" fill="black" stroke="white" stroke-width="11"/>
<path d="M95.0117 150.188L92.1973 148.614C74.5486 138.737 62.5 119.484 62.5 97.2676C62.5 64.8713 88.0672 38.8489 119.313 38.8486C120.15 38.8486 120.983 38.8675 121.811 38.9043L125.499 39.0684L127.048 35.7158C135.324 17.7923 153.054 5.5 173.5 5.5C193.947 5.5 211.677 17.7916 219.952 35.7148L221.5 39.0684L225.189 38.9043C226.018 38.8675 226.85 38.8486 227.687 38.8486C258.932 38.8489 284.5 64.8714 284.5 97.2676C284.5 119.484 272.451 138.737 254.803 148.614L251.988 150.188V186.775C251.988 196.266 251.98 203.816 251.312 209.811L251.169 210.989C250.357 217.186 248.697 222.031 245.169 225.841L244.821 226.206L244.466 226.562C241.011 229.929 236.702 231.615 231.267 232.493L230.126 232.663C224.139 233.489 216.455 233.5 206.575 233.5H140.425C131.163 233.5 123.83 233.49 118.017 232.809L116.874 232.663C110.897 231.839 106.227 230.161 102.533 226.562L102.179 226.207V226.206L101.831 225.841C98.5308 222.277 96.8652 217.807 95.999 212.172L95.8311 210.989C95.1228 205.586 95.0265 198.85 95.0137 190.47L95.0117 186.776V150.188Z" fill="black" stroke="white" stroke-width="11"/>
<path d="M155.012 150.188L152.197 148.614C134.549 138.737 122.5 119.484 122.5 97.2676C122.5 64.8713 148.067 38.8489 179.313 38.8486C180.15 38.8486 180.983 38.8675 181.811 38.9043L185.499 39.0684L187.048 35.7158C195.324 17.7923 213.054 5.5 233.5 5.5C253.947 5.5 271.677 17.7916 279.952 35.7148L281.5 39.0684L285.189 38.9043C286.018 38.8675 286.85 38.8486 287.687 38.8486C318.932 38.8489 344.5 64.8714 344.5 97.2676C344.5 119.484 332.451 138.737 314.803 148.614L311.988 150.188V186.775C311.988 196.266 311.98 203.816 311.312 209.811L311.169 210.989C310.357 217.186 308.697 222.031 305.169 225.841L304.821 226.206L304.466 226.562C301.011 229.929 296.702 231.615 291.267 232.493L290.126 232.663C284.139 233.489 276.455 233.5 266.575 233.5H200.425C191.163 233.5 183.83 233.49 178.017 232.809L176.874 232.663C170.897 231.839 166.227 230.161 162.533 226.562L162.179 226.207V226.206L161.831 225.841C158.531 222.277 156.865 217.807 155.999 212.172L155.831 210.989C155.123 205.586 155.026 198.85 155.014 190.47L155.012 186.776V150.188Z" fill="black" stroke="white" stroke-width="11"/>
</svg>
