<svg  viewBox="0 0 293 239" fill="none" xmlns="http://www.w3.org/2000/svg">
<path d="M38.0117 150.188L35.1973 148.614C17.5487 138.737 5.50005 119.484 5.5 97.2676C5.5 64.8713 31.0672 38.8489 62.3135 38.8486C63.1496 38.8486 63.9827 38.8675 64.8105 38.9043L68.499 39.0684L70.0479 35.7158C78.3242 17.7923 96.0537 5.5 116.5 5.5C136.947 5.5 154.677 17.7916 162.952 35.7148L164.5 39.0684L168.189 38.9043C169.018 38.8675 169.85 38.8486 170.687 38.8486C201.932 38.8489 227.5 64.8714 227.5 97.2676C227.5 119.484 215.451 138.737 197.803 148.614L194.988 150.188V186.775C194.988 196.266 194.98 203.816 194.312 209.811L194.169 210.989C193.357 217.186 191.697 222.031 188.169 225.841L187.821 226.206L187.466 226.562C184.011 229.929 179.702 231.615 174.267 232.493L173.126 232.663C167.139 233.489 159.455 233.5 149.575 233.5H83.4248C74.1629 233.5 66.83 233.49 61.0166 232.809L59.874 232.663C53.8965 231.839 49.2271 230.161 45.5332 226.562L45.1787 226.207V226.206L44.8311 225.841C41.5308 222.277 39.8652 217.807 38.999 212.172L38.8311 210.989C38.1228 205.586 38.0265 198.85 38.0137 190.47L38.0117 186.776V150.188Z" fill="black" stroke="white" stroke-width="11"/>
<path d="M98.0117 150.188L95.1973 148.614C77.5486 138.737 65.5 119.484 65.5 97.2676C65.5 64.8713 91.0672 38.8489 122.313 38.8486C123.15 38.8486 123.983 38.8675 124.811 38.9043L128.499 39.0684L130.048 35.7158C138.324 17.7923 156.054 5.5 176.5 5.5C196.947 5.5 214.677 17.7916 222.952 35.7148L224.5 39.0684L228.189 38.9043C229.018 38.8675 229.85 38.8486 230.687 38.8486C261.932 38.8489 287.5 64.8714 287.5 97.2676C287.5 119.484 275.451 138.737 257.803 148.614L254.988 150.188V186.775C254.988 196.266 254.98 203.816 254.312 209.811L254.169 210.989C253.357 217.186 251.697 222.031 248.169 225.841L247.821 226.206L247.466 226.562C244.011 229.929 239.702 231.615 234.267 232.493L233.126 232.663C227.139 233.489 219.455 233.5 209.575 233.5H143.425C134.163 233.5 126.83 233.49 121.017 232.809L119.874 232.663C113.897 231.839 109.227 230.161 105.533 226.562L105.179 226.207V226.206L104.831 225.841C101.531 222.277 99.8652 217.807 98.999 212.172L98.8311 210.989C98.1228 205.586 98.0265 198.85 98.0137 190.47L98.0117 186.776V150.188Z" fill="black" stroke="white" stroke-width="11"/>
</svg>
