<svg viewBox="0 0 305 239" fill="none" xmlns="http://www.w3.org/2000/svg">
<path d="M139.983 5.5L140.92 5.51367C145.282 5.63477 149.582 6.57407 153.593 8.28223L154.448 8.66016C158.984 10.7375 163.014 13.7646 166.264 17.5332L166.27 17.54L166.275 17.5479C169.465 21.2218 171.821 25.5363 173.183 30.1963C174.535 34.826 174.874 39.6894 174.18 44.46C169.075 71.701 148.608 96.888 126.021 115.23L120.768 119.497L126.019 123.767C148.594 142.126 169.044 167.324 174.13 194.569C174.825 199.342 174.487 204.208 173.134 208.84C171.857 213.21 169.706 217.276 166.813 220.796L166.226 221.492L166.218 221.501C162.97 225.258 158.945 228.276 154.418 230.347C149.89 232.418 144.966 233.494 139.981 233.5H40.0439C35.048 233.495 30.1128 232.416 25.5752 230.339C21.3213 228.391 17.5115 225.609 14.3721 222.163L13.7529 221.465L13.7441 221.456L13.1562 220.758C10.4573 217.469 8.40555 213.705 7.1084 209.662L6.8418 208.792C5.49172 204.157 5.15629 199.288 5.85547 194.514C10.9126 167.249 30.9294 142.063 53.4561 123.77L58.7129 119.501L53.457 115.231C30.9342 96.9347 10.9231 71.747 5.86816 44.4824C5.21149 40.0066 5.4638 35.4479 6.60938 31.0762L6.85254 30.1992C8.12493 25.829 10.27 21.7611 13.1582 18.2393L13.7461 17.543L13.7529 17.5352C17.0052 13.7662 21.0376 10.7387 25.5752 8.66113C29.8293 6.71341 34.4329 5.64374 39.1084 5.51367L40.0439 5.5H139.983Z" fill="black" stroke="white" stroke-width="11"/>
<path d="M201.983 5.5L202.92 5.51367C207.282 5.63477 211.582 6.57407 215.593 8.28223L216.448 8.66016C220.984 10.7375 225.014 13.7646 228.264 17.5332L228.27 17.54L228.275 17.5479C231.465 21.2218 233.821 25.5363 235.183 30.1963C236.535 34.826 236.874 39.6894 236.18 44.46C231.075 71.701 210.608 96.888 188.021 115.23L182.768 119.497L188.019 123.767C210.594 142.126 231.044 167.324 236.13 194.569C236.825 199.342 236.487 204.208 235.134 208.84C233.857 213.21 231.706 217.276 228.813 220.796L228.226 221.492L228.218 221.501C224.97 225.258 220.945 228.276 216.418 230.347C211.89 232.418 206.966 233.494 201.981 233.5H102.044C97.048 233.495 92.1128 232.416 87.5752 230.339C83.3213 228.391 79.5115 225.609 76.3721 222.163L75.7529 221.465L75.7441 221.456L75.1562 220.758C72.4573 217.469 70.4055 213.705 69.1084 209.662L68.8418 208.792C67.4917 204.157 67.1563 199.288 67.8555 194.514C72.9126 167.249 92.9294 142.063 115.456 123.77L120.713 119.501L115.457 115.231C92.9342 96.9347 72.9231 71.747 67.8682 44.4824C67.2115 40.0066 67.4638 35.4479 68.6094 31.0762L68.8525 30.1992C70.1249 25.829 72.27 21.7611 75.1582 18.2393L75.7461 17.543L75.7529 17.5352C79.0052 13.7662 83.0376 10.7387 87.5752 8.66113C91.8293 6.71341 96.4329 5.64374 101.108 5.51367L102.044 5.5H201.983Z" fill="black" stroke="white" stroke-width="11"/>
<path d="M263.983 5.5L264.92 5.51367C269.282 5.63477 273.582 6.57407 277.593 8.28223L278.448 8.66016C282.984 10.7375 287.014 13.7646 290.264 17.5332L290.27 17.54L290.275 17.5479C293.465 21.2218 295.821 25.5363 297.183 30.1963C298.535 34.826 298.874 39.6894 298.18 44.46C293.075 71.701 272.608 96.888 250.021 115.23L244.768 119.497L250.019 123.767C272.594 142.126 293.044 167.324 298.13 194.569C298.825 199.342 298.487 204.208 297.134 208.84C295.857 213.21 293.706 217.276 290.813 220.796L290.226 221.492L290.218 221.501C286.97 225.258 282.945 228.276 278.418 230.347C273.89 232.418 268.966 233.494 263.981 233.5H164.044C159.048 233.495 154.113 232.416 149.575 230.339C145.321 228.391 141.511 225.609 138.372 222.163L137.753 221.465L137.744 221.456L137.156 220.758C134.457 217.469 132.406 213.705 131.108 209.662L130.842 208.792C129.492 204.157 129.156 199.288 129.855 194.514C134.913 167.249 154.929 142.063 177.456 123.77L182.713 119.501L177.457 115.231C154.934 96.9347 134.923 71.747 129.868 44.4824C129.211 40.0066 129.464 35.4479 130.609 31.0762L130.853 30.1992C132.125 25.829 134.27 21.7611 137.158 18.2393L137.746 17.543L137.753 17.5352C141.005 13.7662 145.038 10.7387 149.575 8.66113C153.829 6.71341 158.433 5.64374 163.108 5.51367L164.044 5.5H263.983Z" fill="black" stroke="white" stroke-width="11"/>
</svg>
