<svg viewBox="0 0 181 239" fill="none" xmlns="http://www.w3.org/2000/svg">
<path d="M139.983 5.5L140.92 5.51367C145.282 5.63477 149.582 6.57407 153.593 8.28223L154.448 8.66016C158.984 10.7375 163.014 13.7646 166.264 17.5332L166.27 17.54L166.275 17.5479C169.465 21.2218 171.821 25.5363 173.183 30.1963C174.535 34.826 174.874 39.6894 174.18 44.46C169.075 71.701 148.608 96.888 126.021 115.23L120.768 119.497L126.019 123.767C148.594 142.126 169.044 167.324 174.13 194.569C174.825 199.342 174.487 204.208 173.134 208.84C171.857 213.21 169.706 217.276 166.813 220.796L166.226 221.492L166.218 221.501C162.97 225.258 158.945 228.276 154.418 230.347C149.89 232.418 144.966 233.494 139.981 233.5H40.0439C35.048 233.495 30.1128 232.416 25.5752 230.339C21.3213 228.391 17.5115 225.609 14.3721 222.163L13.7529 221.465L13.7441 221.456L13.1562 220.758C10.4573 217.469 8.40555 213.705 7.1084 209.662L6.8418 208.792C5.49172 204.157 5.15629 199.288 5.85547 194.514C10.9126 167.249 30.9294 142.063 53.4561 123.77L58.7129 119.501L53.457 115.231C30.9342 96.9347 10.9231 71.747 5.86816 44.4824C5.21149 40.0066 5.4638 35.4479 6.60938 31.0762L6.85254 30.1992C8.12493 25.829 10.27 21.7611 13.1582 18.2393L13.7461 17.543L13.7529 17.5352C17.0052 13.7662 21.0376 10.7387 25.5752 8.66113C29.8293 6.71341 34.4329 5.64374 39.1084 5.51367L40.0439 5.5H139.983Z" fill="black" stroke="white" stroke-width="11"/>
</svg>
