<svg viewBox="0 0 350 239" fill="none" xmlns="http://www.w3.org/2000/svg">
<path d="M43.5117 146.964L37.8838 143.814C21.9447 134.894 11 117.461 11 97.2676C11 67.7763 34.2357 44.3489 62.3135 44.3486C63.0679 44.3486 63.8194 44.3653 64.5664 44.3984L71.9443 44.7266L75.041 38.0215C82.4776 21.9164 98.337 11 116.5 11C134.663 11 150.522 21.9161 157.958 38.0205L161.055 44.7266L168.433 44.3984C169.18 44.3653 169.932 44.3486 170.687 44.3486C198.764 44.3489 222 67.7763 222 97.2676C222 117.461 211.055 134.894 195.116 143.814L189.488 146.964V186.775C189.488 196.393 189.471 203.587 188.849 209.177L188.716 210.273V210.274C187.978 215.907 186.574 219.473 184.124 222.113L183.884 222.366L183.882 222.368C181.482 224.831 178.335 226.265 173.389 227.063L172.375 227.215H172.374C166.846 227.977 159.597 228 149.575 228H83.4248C74.0297 228 67.0705 227.98 61.6826 227.35L60.626 227.215H60.625C55.2607 226.475 51.893 225.085 49.3594 222.61L49.1172 222.367L49.1162 222.366L48.876 222.114C46.5845 219.644 45.2082 216.364 44.4355 211.339L44.2842 210.274C43.626 205.253 43.5277 198.881 43.5137 190.495L43.5117 186.776V146.964Z" fill="white" stroke="black" stroke-width="22"/>
<path d="M100.512 146.964L94.8838 143.814C78.9447 134.894 68 117.461 68 97.2676C68 67.7763 91.2357 44.3489 119.313 44.3486C120.068 44.3486 120.819 44.3653 121.566 44.3984L128.944 44.7266L132.041 38.0215C139.478 21.9164 155.337 11 173.5 11C191.663 11 207.522 21.9161 214.958 38.0205L218.055 44.7266L225.433 44.3984C226.18 44.3653 226.932 44.3486 227.687 44.3486C255.764 44.3489 279 67.7763 279 97.2676C279 117.461 268.055 134.894 252.116 143.814L246.488 146.964V186.775C246.488 196.393 246.471 203.587 245.849 209.177L245.716 210.273V210.274C244.978 215.907 243.574 219.473 241.124 222.113L240.884 222.366L240.882 222.368C238.482 224.83 235.335 226.265 230.389 227.063L229.375 227.215H229.374C223.846 227.977 216.596 228 206.575 228H140.425C131.03 228 124.071 227.98 118.683 227.35L117.626 227.215H117.625C112.261 226.475 108.893 225.085 106.359 222.61L106.117 222.367L106.116 222.366L105.876 222.114C103.584 219.644 102.208 216.364 101.436 211.339L101.284 210.274C100.626 205.253 100.528 198.881 100.514 190.495L100.512 186.776V146.964Z" fill="white" stroke="black" stroke-width="22"/>
<path d="M160.512 146.964L154.884 143.814C138.945 134.894 128 117.461 128 97.2676C128 67.7763 151.236 44.3489 179.313 44.3486C180.068 44.3486 180.819 44.3653 181.566 44.3984L188.944 44.7266L192.041 38.0215C199.478 21.9164 215.337 11 233.5 11C251.663 11 267.522 21.9161 274.958 38.0205L278.055 44.7266L285.433 44.3984C286.18 44.3653 286.932 44.3486 287.687 44.3486C315.764 44.3489 339 67.7763 339 97.2676C339 117.461 328.055 134.894 312.116 143.814L306.488 146.964V186.775C306.488 196.393 306.471 203.587 305.849 209.177L305.716 210.273V210.274C304.978 215.907 303.574 219.473 301.124 222.113L300.884 222.366L300.882 222.368C298.482 224.831 295.335 226.265 290.389 227.063L289.375 227.215H289.374C283.846 227.977 276.597 228 266.575 228H200.425C191.03 228 184.071 227.98 178.683 227.35L177.626 227.215H177.625C172.261 226.475 168.893 225.085 166.359 222.61L166.117 222.367L166.116 222.366L165.876 222.114C163.584 219.644 162.208 216.364 161.436 211.339L161.284 210.274C160.626 205.253 160.528 198.881 160.514 190.495L160.512 186.776V146.964Z" fill="white" stroke="black" stroke-width="22"/>
</svg>
