<svg viewBox="0 0 233 239" fill="none" xmlns="http://www.w3.org/2000/svg">
<path d="M43.5117 146.964L37.8838 143.814C21.9447 134.894 11 117.461 11 97.2676C11 67.7763 34.2357 44.3489 62.3135 44.3486C63.0679 44.3486 63.8194 44.3653 64.5664 44.3984L71.9443 44.7266L75.041 38.0215C82.4776 21.9164 98.337 11 116.5 11C134.663 11 150.522 21.9161 157.958 38.0205L161.055 44.7266L168.433 44.3984C169.18 44.3653 169.932 44.3486 170.687 44.3486C198.764 44.3489 222 67.7763 222 97.2676C222 117.461 211.055 134.894 195.116 143.814L189.488 146.964V186.775C189.488 196.393 189.471 203.587 188.849 209.177L188.716 210.273V210.274C187.978 215.907 186.574 219.473 184.124 222.113L183.884 222.366L183.882 222.368C181.482 224.831 178.335 226.265 173.389 227.063L172.375 227.215H172.374C166.846 227.977 159.597 228 149.575 228H83.4248C74.0297 228 67.0705 227.98 61.6826 227.35L60.626 227.215H60.625C55.2607 226.475 51.893 225.085 49.3594 222.61L49.1172 222.367L49.1162 222.366L48.876 222.114C46.5845 219.644 45.2082 216.364 44.4355 211.339L44.2842 210.274C43.626 205.253 43.5277 198.881 43.5137 190.495L43.5117 186.776V146.964Z" fill="white" stroke="black" stroke-width="22"/>
</svg>
