<svg  viewBox="0 0 305 239" fill="none" xmlns="http://www.w3.org/2000/svg">
<path d="M139.979 11L140.767 11.0117C144.703 11.1209 148.578 12.0208 152.157 13.6602C155.975 15.4088 159.366 17.9562 162.099 21.125L162.11 21.1396L162.123 21.1533C164.794 24.2295 166.764 27.8404 167.903 31.7383C169.025 35.577 169.312 39.6073 168.752 43.5635C163.957 68.9102 144.663 93.0068 122.555 110.961L112.047 119.494L122.548 128.034C144.643 146.003 163.92 170.106 168.7 195.453C169.264 199.415 168.978 203.453 167.854 207.298C166.715 211.197 164.744 214.809 162.072 217.887L162.064 217.896L162.058 217.903C159.326 221.062 155.941 223.601 152.13 225.345C148.319 227.088 144.172 227.995 139.975 228H40.0498C35.8415 227.996 31.6846 227.087 27.8643 225.338C24.0443 223.589 20.6519 221.041 17.917 217.872L17.9082 217.862L17.9004 217.853L17.4072 217.269C14.986 214.318 13.1886 210.912 12.123 207.254C11.0024 203.406 10.7182 199.367 11.2852 195.403C16.0398 170.001 34.9199 145.907 56.9229 128.039L67.4365 119.501L56.9248 110.962C34.9228 93.0883 16.0457 68.9902 11.2959 43.584C10.7291 39.6215 11.013 35.5838 12.1328 31.7373C13.2682 27.8375 15.2355 24.2235 17.9033 21.1436L17.917 21.1279C20.6519 17.9586 24.0443 15.4112 27.8643 13.6621C31.4457 12.0223 35.3227 11.1213 39.2607 11.0117L40.0498 11H139.979Z" fill="white" stroke="black" stroke-width="22"/>
<path d="M201.979 11L202.767 11.0117C206.703 11.1209 210.578 12.0208 214.157 13.6602C217.975 15.4088 221.366 17.9562 224.099 21.125L224.11 21.1396L224.123 21.1533C226.794 24.2295 228.764 27.8404 229.903 31.7383C231.025 35.577 231.312 39.6073 230.752 43.5635C225.957 68.9102 206.663 93.0068 184.555 110.961L174.047 119.494L184.548 128.034C206.643 146.003 225.92 170.106 230.7 195.453C231.264 199.415 230.978 203.453 229.854 207.298C228.715 211.197 226.744 214.809 224.072 217.887L224.064 217.896L224.058 217.903C221.326 221.062 217.941 223.601 214.13 225.345C210.319 227.088 206.172 227.995 201.975 228H102.05C97.8415 227.996 93.6846 227.087 89.8643 225.338C86.0443 223.589 82.6519 221.041 79.917 217.872L79.9082 217.862L79.9004 217.853L79.4072 217.269C76.986 214.318 75.1886 210.912 74.123 207.254C73.0024 203.406 72.7182 199.367 73.2852 195.403C78.0398 170.001 96.9199 145.907 118.923 128.039L129.437 119.501L118.925 110.962C96.9228 93.0883 78.0457 68.9902 73.2959 43.584C72.7291 39.6215 73.013 35.5838 74.1328 31.7373C75.2682 27.8375 77.2355 24.2235 79.9033 21.1436L79.917 21.1279C82.6519 17.9586 86.0443 15.4112 89.8643 13.6621C93.4457 12.0223 97.3227 11.1213 101.261 11.0117L102.05 11H201.979Z" fill="white" stroke="black" stroke-width="22"/>
<path d="M263.979 11L264.767 11.0117C268.703 11.1209 272.578 12.0208 276.157 13.6602C279.975 15.4088 283.366 17.9562 286.099 21.125L286.11 21.1396L286.123 21.1533C288.794 24.2295 290.764 27.8404 291.903 31.7383C293.025 35.577 293.312 39.6073 292.752 43.5635C287.957 68.9102 268.663 93.0068 246.555 110.961L236.047 119.494L246.548 128.034C268.643 146.003 287.92 170.106 292.7 195.453C293.264 199.415 292.978 203.453 291.854 207.298C290.715 211.197 288.744 214.809 286.072 217.887L286.064 217.896L286.058 217.903C283.326 221.062 279.941 223.601 276.13 225.345C272.319 227.088 268.172 227.995 263.975 228H164.05C159.842 227.996 155.685 227.087 151.864 225.338C148.044 223.589 144.652 221.041 141.917 217.872L141.908 217.862L141.9 217.853L141.407 217.269C138.986 214.318 137.189 210.912 136.123 207.254C135.002 203.406 134.718 199.367 135.285 195.403C140.04 170.001 158.92 145.907 180.923 128.039L191.437 119.501L180.925 110.962C158.923 93.0883 140.046 68.9902 135.296 43.584C134.729 39.6215 135.013 35.5838 136.133 31.7373C137.268 27.8375 139.235 24.2235 141.903 21.1436L141.917 21.1279C144.652 17.9586 148.044 15.4112 151.864 13.6621C155.446 12.0223 159.323 11.1213 163.261 11.0117L164.05 11H263.979Z" fill="white" stroke="black" stroke-width="22"/>
</svg>
