<svg  viewBox="0 0 175 239" fill="none" xmlns="http://www.w3.org/2000/svg">
<path d="M136.066 11L136.814 11.0107C140.555 11.1174 144.247 11.9981 147.669 13.6104C151.32 15.3305 154.587 17.8479 157.235 21.0078L157.247 21.0225L157.259 21.0361C159.848 24.1041 161.776 27.7253 162.893 31.6582C163.993 35.5319 164.276 39.6059 163.726 43.6055C159.054 69.0359 140.266 93.1397 118.817 111.059L108.72 119.494L118.812 127.937C140.248 145.871 159.019 169.983 163.675 195.415C164.228 199.42 163.946 203.498 162.845 207.377C161.728 211.312 159.8 214.934 157.21 218.004L157.203 218.013L157.195 218.021C154.548 221.17 151.286 223.681 147.642 225.396C143.998 227.11 140.049 227.995 136.062 228H38.9307C34.9325 227.996 30.9733 227.109 27.3213 225.389C23.6685 223.668 20.3991 221.15 17.748 217.989L17.7324 217.97L17.2549 217.388C14.9053 214.443 13.1468 211.025 12.1016 207.333C11.0011 203.446 10.7217 199.359 11.2812 195.348C15.9176 169.866 34.3027 145.771 55.6445 127.941L65.7471 119.501L55.6455 111.06C34.3004 93.221 15.9171 69.1148 11.29 43.624C10.7335 39.6188 11.013 35.5382 12.1113 31.6572C13.1553 27.9685 14.9114 24.553 17.2578 21.6094L17.7354 21.0264L17.7422 21.0186L17.748 21.0107C20.3991 17.8502 23.6685 15.3319 27.3213 13.6113C30.7451 11.9987 34.4389 11.1178 38.1816 11.0107L38.9307 11H136.066Z" stroke="currentColor" stroke-width="22"/>
</svg>
