<svg  viewBox="0 0 181 239" fill="none" xmlns="http://www.w3.org/2000/svg">
<path d="M139.979 11L140.767 11.0117C144.703 11.1209 148.578 12.0208 152.157 13.6602C155.975 15.4088 159.366 17.9562 162.099 21.125L162.11 21.1396L162.123 21.1533C164.794 24.2295 166.764 27.8404 167.903 31.7383C169.025 35.577 169.312 39.6073 168.752 43.5635C163.957 68.9102 144.663 93.0068 122.555 110.961L112.047 119.494L122.548 128.034C144.643 146.003 163.92 170.106 168.7 195.453C169.264 199.415 168.978 203.453 167.854 207.298C166.715 211.197 164.744 214.809 162.072 217.887L162.064 217.896L162.058 217.903C159.326 221.062 155.941 223.601 152.13 225.345C148.319 227.088 144.172 227.995 139.975 228H40.0498C35.8415 227.996 31.6846 227.087 27.8643 225.338C24.0443 223.589 20.6519 221.041 17.917 217.872L17.9082 217.862L17.9004 217.853L17.4072 217.269C14.986 214.318 13.1886 210.912 12.123 207.254C11.0024 203.406 10.7182 199.367 11.2852 195.403C16.0398 170.001 34.9199 145.907 56.9229 128.039L67.4365 119.501L56.9248 110.962C34.9228 93.0883 16.0457 68.9902 11.2959 43.584C10.7291 39.6215 11.013 35.5838 12.1328 31.7373C13.2682 27.8375 15.2355 24.2235 17.9033 21.1436L17.917 21.1279C20.6519 17.9586 24.0443 15.4112 27.8643 13.6621C31.4457 12.0223 35.3227 11.1213 39.2607 11.0117L40.0498 11H139.979Z" fill="white" stroke="black" stroke-width="22"/>
</svg>
